<mxfile host="app.diagrams.net" agent="Mozilla/5.0 (Windows NT 10.0; Win64; x64) AppleWebKit/537.36 (KHTML, like Gecko) Chrome/129.0.0.0 Safari/537.36" version="24.7.17">
  <diagram name="Page-1" id="FS7VJkMbRz6pYILuFVr9">
    <mxGraphModel dx="2074" dy="1132" grid="1" gridSize="10" guides="1" tooltips="1" connect="1" arrows="1" fold="1" page="1" pageScale="1" pageWidth="850" pageHeight="1100" math="0" shadow="0">
      <root>
        <mxCell id="0" />
        <mxCell id="1" parent="0" />
        <mxCell id="_BTo5vQ42Zz95vigCYh--1" value="Recipe Title" style="rounded=0;whiteSpace=wrap;html=1;" vertex="1" parent="1">
          <mxGeometry x="40" y="80" width="510" height="120" as="geometry" />
        </mxCell>
        <mxCell id="_BTo5vQ42Zz95vigCYh--2" value="Recipe Description" style="rounded=1;whiteSpace=wrap;html=1;" vertex="1" parent="1">
          <mxGeometry x="75" y="220" width="455" height="190" as="geometry" />
        </mxCell>
        <mxCell id="_BTo5vQ42Zz95vigCYh--3" value="Ingredients List" style="rounded=0;whiteSpace=wrap;html=1;" vertex="1" parent="1">
          <mxGeometry x="100" y="440" width="300" height="600" as="geometry" />
        </mxCell>
        <mxCell id="_BTo5vQ42Zz95vigCYh--5" value="Recipe Procedure ( In Steps )" style="rounded=0;whiteSpace=wrap;html=1;" vertex="1" parent="1">
          <mxGeometry x="440" y="440" width="300" height="600" as="geometry" />
        </mxCell>
        <mxCell id="_BTo5vQ42Zz95vigCYh--6" value="Recipe Image" style="whiteSpace=wrap;html=1;aspect=fixed;" vertex="1" parent="1">
          <mxGeometry x="580" y="80" width="230" height="230" as="geometry" />
        </mxCell>
        <mxCell id="_BTo5vQ42Zz95vigCYh--7" value="Layout for a Recipe" style="rounded=0;whiteSpace=wrap;html=1;" vertex="1" parent="1">
          <mxGeometry y="10" width="840" height="40" as="geometry" />
        </mxCell>
      </root>
    </mxGraphModel>
  </diagram>
</mxfile>
